<svg xmlns="http://www.w3.org/2000/svg" xmlns:xlink="http://www.w3.org/1999/xlink" width="200" zoomAndPan="magnify" viewBox="0 0 150 112.499997" height="150" preserveAspectRatio="xMidYMid meet" version="1.0"><defs><g/></defs><g fill="#000000" fill-opacity="1"><g transform="translate(10.492683, 60.580657)"><g><path d="M 39.859375 -22.714844 L 38.503906 -22.714844 L 39.164062 -24.4375 L 34.4375 -24.4375 L 29.347656 -19.378906 L 28.464844 -22.714844 L 28.101562 -22.714844 L 27.660156 -24.4375 L 24.144531 -24.4375 L 18.976562 -11.832031 C 18.683594 -11.832031 18.574219 -11.832031 18.316406 -11.832031 C 18.023438 -11.832031 17.914062 -11.832031 17.585938 -11.832031 L 18.246094 -13.519531 C 11.320312 -13.410156 6.226562 -11.320312 3.003906 -7.289062 C 1.136719 -5.019531 0.367188 -3.078125 0.367188 -0.84375 C 0.367188 0.476562 0.734375 1.832031 1.429688 3.113281 C 2.308594 6.226562 5.054688 8.207031 8.5 8.207031 C 11.945312 8.207031 15.167969 6.265625 17.511719 2.785156 C 18.28125 1.613281 18.941406 0.21875 20.078125 -2.636719 L 26.230469 -17.730469 L 27.402344 -13.226562 L 27.585938 -13.410156 L 28.101562 -11.394531 L 31.875 -15.019531 L 29.164062 -8.242188 C 28.394531 -6.265625 28.171875 -5.605469 28.171875 -4.835938 C 28.171875 -3.957031 28.394531 -3.40625 28.980469 -2.820312 C 29.199219 -0.914062 30.445312 0 32.828125 0 L 34.839844 0 L 36.125 -3.113281 L 34.839844 -3.113281 L 35.5 -4.835938 L 32.714844 -4.835938 Z M 38.320312 -23.960938 L 31.875 -7.730469 C 31.726562 -7.402344 31.617188 -7.144531 31.507812 -6.886719 C 31.214844 -6.15625 31.105469 -5.824219 31.105469 -5.53125 C 31.105469 -4.652344 31.652344 -4.324219 33.230469 -4.324219 L 34.695312 -4.324219 L 33.890625 -2.269531 L 32.9375 -2.269531 C 29.933594 -2.269531 28.722656 -3.003906 28.722656 -4.910156 C 28.722656 -5.605469 29.050781 -6.667969 29.75 -8.390625 C 29.96875 -8.9375 30.152344 -9.34375 30.1875 -9.453125 L 34.914062 -21.210938 L 27.695312 -14.140625 L 25.792969 -21.324219 L 19.492188 -5.714844 C 19.015625 -4.578125 18.355469 -3.039062 17.769531 -1.867188 C 17.035156 -0.367188 16.449219 0.621094 15.644531 1.683594 C 13.519531 4.46875 10.625 6.046875 7.621094 6.046875 C 3.808594 6.046875 0.914062 3.078125 0.914062 -0.878906 C 0.914062 -4.542969 3.664062 -8.425781 7.914062 -10.699219 C 10.332031 -11.980469 12.859375 -12.640625 16.488281 -12.894531 L 17.476562 -12.96875 L 16.667969 -10.953125 C 9.414062 -10.660156 3.222656 -6.082031 3.222656 -0.988281 C 3.222656 1.757812 5.164062 3.738281 7.914062 3.738281 C 11.46875 3.738281 14.472656 0.660156 17 -5.53125 L 24.4375 -23.960938 L 27.257812 -23.960938 L 28.796875 -18.097656 L 34.695312 -23.960938 Z M 17.695312 -8.71875 L 17.476562 -8.207031 C 16.558594 -5.605469 15.898438 -4.175781 14.949219 -2.34375 C 13.042969 1.210938 10.476562 3.222656 7.949219 3.222656 C 6.519531 3.222656 5.457031 2.710938 4.394531 1.464844 C 4.359375 1.320312 4.394531 1.210938 4.394531 1.136719 C 4.394531 -1.832031 6.996094 -5.238281 10.625 -6.996094 C 12.382812 -7.875 15.789062 -8.71875 17.402344 -8.71875 C 17.511719 -8.71875 17.550781 -8.71875 17.695312 -8.71875 Z M 17.695312 -8.71875 "/></g></g></g><g fill="#000000" fill-opacity="1"><g transform="translate(47.165835, 60.580657)"><g><path d="M 9.304688 -2.820312 L 7.875 -2.820312 L 8.5 -4.507812 L 5.09375 -4.507812 L 8.097656 -11.871094 L 6.632812 -11.871094 L 6.886719 -12.492188 C 7.289062 -12.308594 7.511719 -12.273438 7.804688 -12.273438 C 9.011719 -12.273438 10 -13.300781 10 -14.507812 C 10 -15.3125 9.671875 -15.9375 8.976562 -16.449219 C 8.902344 -17.660156 7.949219 -18.539062 6.703125 -18.539062 C 5.457031 -18.539062 4.394531 -17.550781 4.394531 -16.304688 C 4.394531 -15.535156 4.835938 -14.800781 5.53125 -14.289062 C 5.570312 -13.957031 5.605469 -13.847656 5.789062 -13.554688 L 4.101562 -13.554688 L 1.320312 -6.742188 L 0.988281 -5.933594 C 0.769531 -5.457031 0.660156 -4.984375 0.660156 -4.578125 C 0.660156 -3.664062 1.027344 -2.929688 1.722656 -2.382812 C 1.796875 -1.757812 2.089844 -1.171875 2.566406 -0.734375 C 3.152344 -0.183594 3.882812 0 5.640625 0 L 8.097656 0 Z M 7.765625 -3.992188 L 7.035156 -2.199219 L 3.808594 -2.199219 C 2.382812 -2.199219 1.171875 -3.261719 1.171875 -4.542969 C 1.171875 -4.871094 1.320312 -5.347656 1.503906 -5.824219 L 1.976562 -6.960938 L 4.433594 -12.933594 L 6.484375 -12.933594 L 3.847656 -6.449219 C 3.699219 -6.117188 3.628906 -5.898438 3.589844 -5.824219 C 3.40625 -5.386719 3.332031 -5.203125 3.332031 -4.984375 C 3.332031 -4.285156 3.808594 -3.992188 5.054688 -3.992188 Z M 8.425781 -16.304688 C 8.425781 -15.3125 7.65625 -14.507812 6.703125 -14.507812 C 5.75 -14.507812 4.945312 -15.3125 4.945312 -16.265625 C 4.945312 -17.21875 5.75 -18.023438 6.703125 -18.023438 C 7.65625 -18.023438 8.425781 -17.253906 8.425781 -16.304688 Z M 8.425781 -16.304688 "/></g></g></g><g fill="#000000" fill-opacity="1"><g transform="translate(56.215059, 60.580657)"><g><path d="M 16.558594 -11.832031 L 14.105469 -11.832031 L 15.898438 -13.554688 L 11.648438 -13.554688 L 8.902344 -10.992188 L 8.574219 -11.832031 L 7.914062 -11.832031 L 7.21875 -13.554688 L 4.101562 -13.554688 L 6.082031 -8.28125 L -0.734375 -1.722656 L 1.722656 -1.722656 L -0.0351562 0 L 4.285156 0 L 7.914062 -3.554688 L 8.71875 -1.722656 L 9.488281 -1.722656 L 10.148438 0 L 13.1875 0 L 10.734375 -6.226562 Z M 14.617188 -13.078125 L 9.050781 -7.621094 L 11.101562 -2.234375 L 9.050781 -2.234375 L 7.472656 -6.15625 L 3.332031 -2.234375 L 0.550781 -2.234375 L 6.703125 -8.132812 L 4.835938 -12.96875 L 6.886719 -12.96875 L 8.242188 -9.636719 L 11.832031 -13.078125 Z M 14.617188 -13.078125 "/></g></g></g><g fill="#000000" fill-opacity="1"><g transform="translate(71.309293, 60.580657)"><g><path d="M 12.53125 -10.441406 C 12.164062 -12.164062 10.113281 -13.628906 8.023438 -13.628906 C 4.285156 -13.628906 0.550781 -9.855469 0.550781 -6.007812 C 0.550781 -4.726562 1.097656 -3.332031 1.867188 -2.566406 C 1.976562 -1.90625 2.269531 -1.429688 2.820312 -0.804688 C 3.554688 -0.0351562 4.394531 0.257812 6.117188 0.257812 C 8.390625 0.257812 9.671875 -0.21875 11.0625 -1.503906 C 12.710938 -3.078125 13.703125 -5.128906 13.703125 -7.109375 C 13.703125 -8.351562 13.335938 -9.414062 12.53125 -10.441406 Z M 12.308594 -8.683594 C 12.308594 -6.558594 10.992188 -4.214844 9.085938 -2.96875 C 7.914062 -2.160156 6.996094 -1.90625 4.945312 -1.90625 C 2.527344 -1.90625 1.097656 -3.445312 1.097656 -5.933594 C 1.097656 -9.597656 4.542969 -13.152344 8.058594 -13.152344 C 10.476562 -13.152344 12.308594 -11.246094 12.308594 -8.683594 Z M 10.222656 -8.28125 C 10.367188 -9.929688 9.34375 -11.175781 7.804688 -11.175781 C 6.777344 -11.175781 5.714844 -10.699219 4.835938 -9.820312 C 3.882812 -8.828125 3.152344 -7.21875 3.152344 -6.117188 C 3.152344 -4.578125 3.992188 -3.773438 5.640625 -3.773438 C 8.023438 -3.773438 10 -5.679688 10.222656 -8.28125 Z M 9.671875 -8.828125 C 9.707031 -8.683594 9.707031 -8.574219 9.707031 -8.5 C 9.707031 -7.472656 9.269531 -6.449219 8.425781 -5.496094 C 7.65625 -4.617188 6.742188 -4.25 5.496094 -4.25 C 5.164062 -4.25 4.984375 -4.285156 4.578125 -4.433594 C 4.617188 -6.777344 6.632812 -9.085938 8.609375 -9.085938 C 9.050781 -9.085938 9.34375 -9.011719 9.671875 -8.828125 Z M 9.671875 -8.828125 "/></g></g></g><g fill="#000000" fill-opacity="1"><g transform="translate(85.560898, 60.580657)"><g><path d="M 12.566406 -22.640625 L 10.953125 -22.640625 L 11.722656 -24.4375 L 8.683594 -24.4375 L 1.320312 -6.925781 C 0.769531 -5.605469 0.660156 -5.238281 0.660156 -4.652344 C 0.660156 -3.882812 0.914062 -3.296875 1.503906 -2.601562 C 1.722656 -0.878906 2.820312 0 4.726562 0 L 8.058594 0 L 9.378906 -2.929688 L 7.875 -2.929688 L 8.609375 -4.652344 L 5.09375 -4.652344 Z M 11.0625 -23.960938 L 3.921875 -6.851562 L 3.664062 -6.226562 C 3.480469 -5.863281 3.371094 -5.421875 3.371094 -5.128906 C 3.371094 -4.394531 3.808594 -4.175781 5.277344 -4.175781 L 7.875 -4.175781 L 7.109375 -2.308594 L 4.433594 -2.308594 C 3.078125 -2.308594 2.527344 -2.417969 1.976562 -2.859375 C 1.464844 -3.296875 1.136719 -3.957031 1.136719 -4.691406 C 1.136719 -5.054688 1.246094 -5.421875 1.390625 -5.863281 L 1.757812 -6.703125 L 8.9375 -23.960938 Z M 11.0625 -23.960938 "/></g></g></g><g fill="#000000" fill-opacity="1"><g transform="translate(94.72004, 60.580657)"><g><path d="M 12.53125 -10.441406 C 12.164062 -12.164062 10.113281 -13.628906 8.023438 -13.628906 C 4.285156 -13.628906 0.550781 -9.855469 0.550781 -6.007812 C 0.550781 -4.726562 1.097656 -3.332031 1.867188 -2.566406 C 1.976562 -1.90625 2.269531 -1.429688 2.820312 -0.804688 C 3.554688 -0.0351562 4.394531 0.257812 6.117188 0.257812 C 8.390625 0.257812 9.671875 -0.21875 11.0625 -1.503906 C 12.710938 -3.078125 13.703125 -5.128906 13.703125 -7.109375 C 13.703125 -8.351562 13.335938 -9.414062 12.53125 -10.441406 Z M 12.308594 -8.683594 C 12.308594 -6.558594 10.992188 -4.214844 9.085938 -2.96875 C 7.914062 -2.160156 6.996094 -1.90625 4.945312 -1.90625 C 2.527344 -1.90625 1.097656 -3.445312 1.097656 -5.933594 C 1.097656 -9.597656 4.542969 -13.152344 8.058594 -13.152344 C 10.476562 -13.152344 12.308594 -11.246094 12.308594 -8.683594 Z M 10.222656 -8.28125 C 10.367188 -9.929688 9.34375 -11.175781 7.804688 -11.175781 C 6.777344 -11.175781 5.714844 -10.699219 4.835938 -9.820312 C 3.882812 -8.828125 3.152344 -7.21875 3.152344 -6.117188 C 3.152344 -4.578125 3.992188 -3.773438 5.640625 -3.773438 C 8.023438 -3.773438 10 -5.679688 10.222656 -8.28125 Z M 9.671875 -8.828125 C 9.707031 -8.683594 9.707031 -8.574219 9.707031 -8.5 C 9.707031 -7.472656 9.269531 -6.449219 8.425781 -5.496094 C 7.65625 -4.617188 6.742188 -4.25 5.496094 -4.25 C 5.164062 -4.25 4.984375 -4.285156 4.578125 -4.433594 C 4.617188 -6.777344 6.632812 -9.085938 8.609375 -9.085938 C 9.050781 -9.085938 9.34375 -9.011719 9.671875 -8.828125 Z M 9.671875 -8.828125 "/></g></g></g><g fill="#000000" fill-opacity="1"><g transform="translate(108.971645, 60.580657)"><g><path d="M 15.9375 -11.722656 L 14.507812 -11.722656 L 15.203125 -13.410156 L 12.015625 -13.410156 L 11.6875 -12.566406 C 11.027344 -13.335938 9.855469 -13.773438 8.574219 -13.773438 C 6.8125 -13.773438 5.128906 -13.042969 3.738281 -11.761719 C 2.125 -10.257812 1.0625 -7.988281 1.0625 -6.117188 C 1.0625 -4.910156 1.390625 -3.921875 2.160156 -3.003906 C 2.492188 -1.613281 3.113281 -0.804688 4.324219 -0.257812 L 3.699219 -0.21875 C 1.390625 -0.183594 0.0742188 -0.0351562 -1.027344 0.257812 C -3.957031 1.136719 -5.863281 3.371094 -5.863281 5.933594 C -5.863281 6.886719 -5.679688 7.511719 -4.984375 8.71875 C -4.394531 11.320312 -2.269531 12.894531 0.695312 12.894531 C 3.40625 12.894531 5.605469 11.613281 7.035156 9.230469 C 7.65625 8.171875 8.316406 6.8125 9.34375 4.324219 L 14.289062 4.324219 L 15.460938 1.464844 L 13.957031 1.464844 L 14.691406 -0.257812 L 11.210938 -0.257812 Z M 14.433594 -12.894531 L 9.011719 0.257812 L 13.921875 0.257812 L 13.152344 2.160156 L 8.207031 2.160156 L 7.988281 2.710938 C 7.179688 4.761719 6.996094 5.128906 6.703125 5.75 C 6.117188 6.925781 5.605469 7.730469 4.984375 8.390625 C 3.664062 9.78125 1.757812 10.625 -0.0742188 10.625 C -3.003906 10.625 -5.347656 8.535156 -5.347656 5.898438 C -5.347656 4.140625 -4.25 2.417969 -2.453125 1.390625 C -0.988281 0.550781 0.84375 0.257812 4.542969 0.257812 L 6.925781 0.257812 L 8.058594 -2.601562 C 7.402344 -2.160156 6.960938 -2.089844 5.824219 -2.089844 C 3.113281 -2.089844 1.574219 -3.554688 1.574219 -6.082031 C 1.574219 -7.65625 2.453125 -9.746094 3.664062 -11.027344 C 4.945312 -12.382812 6.851562 -13.261719 8.5 -13.261719 C 9.964844 -13.261719 11.101562 -12.75 11.796875 -11.722656 L 12.347656 -12.894531 Z M 9.230469 -5.457031 L 10.222656 -7.804688 C 10.625 -8.792969 10.660156 -8.976562 10.660156 -9.453125 C 10.660156 -10.625 9.746094 -11.429688 8.425781 -11.429688 C 6.117188 -11.429688 3.628906 -8.792969 3.628906 -6.339844 C 3.628906 -4.835938 4.617188 -3.882812 6.117188 -3.882812 C 6.777344 -3.882812 7.328125 -4.066406 7.875 -4.46875 Z M 6.117188 2.160156 L 3.113281 2.160156 C 1.097656 2.160156 -0.21875 2.382812 -1.210938 2.859375 C -2.566406 3.554688 -3.332031 4.652344 -3.332031 5.824219 C -3.332031 7.511719 -2.015625 8.683594 -0.183594 8.683594 C 2.601562 8.683594 4.433594 6.8125 6.117188 2.160156 Z M 8.828125 -5.75 C 8.683594 -5.640625 8.574219 -5.570312 8.5 -5.53125 L 7.949219 -5.09375 C 7.21875 -4.542969 6.742188 -4.394531 6.007812 -4.394531 C 5.679688 -4.394531 5.457031 -4.433594 5.054688 -4.578125 C 5.054688 -4.726562 5.019531 -4.800781 5.019531 -4.835938 C 5.019531 -5.679688 5.714844 -6.960938 6.59375 -7.875 C 7.402344 -8.71875 8.351562 -9.160156 9.304688 -9.160156 C 9.5625 -9.160156 9.746094 -9.160156 10.113281 -9.050781 C 9.964844 -8.535156 9.855469 -8.242188 9.527344 -7.402344 Z M 4.617188 4.324219 C 3.554688 6.851562 1.832031 8.207031 -0.183594 8.207031 C -0.914062 8.207031 -1.539062 7.988281 -2.089844 7.546875 C -1.976562 6.300781 -1.027344 5.3125 0.511719 4.800781 C 1.683594 4.433594 2.527344 4.359375 4.617188 4.324219 Z M 4.617188 4.324219 "/></g></g></g><g fill="#000000" fill-opacity="1"><g transform="translate(124.175797, 60.580657)"><g><path d="M 15.828125 -11.648438 L 14.398438 -11.648438 L 15.09375 -13.410156 L 11.871094 -13.410156 L 8.609375 -5.496094 C 7.289062 -4.578125 6.8125 -4.359375 6.15625 -4.359375 C 5.898438 -4.359375 5.75 -4.394531 5.386719 -4.46875 L 8.390625 -11.648438 L 6.886719 -11.648438 L 7.582031 -13.410156 L 4.394531 -13.410156 L 2.089844 -7.730469 C 1.429688 -6.082031 1.28125 -5.640625 1.28125 -4.945312 C 1.28125 -4.175781 1.464844 -3.738281 2.089844 -2.710938 C 2.234375 -1.539062 2.601562 -0.84375 3.515625 -0.183594 C 1.171875 -0.109375 0.292969 -0.0351562 -0.878906 0.292969 C -3.992188 1.097656 -5.972656 3.332031 -5.972656 5.972656 C -5.972656 6.960938 -5.75 7.695312 -5.09375 8.828125 C -4.433594 11.429688 -2.269531 12.96875 0.734375 12.96875 C 4.359375 12.96875 6.777344 10.699219 8.828125 5.421875 L 9.230469 4.359375 L 14.214844 4.359375 L 15.386719 1.503906 L 13.886719 1.503906 L 14.582031 -0.183594 L 11.136719 -0.183594 Z M 14.289062 -12.859375 L 8.902344 0.328125 L 13.8125 0.328125 L 13.078125 2.199219 L 8.132812 2.199219 L 7.402344 4.03125 C 6.265625 6.8125 5.457031 8.058594 4.140625 9.160156 C 2.894531 10.183594 1.429688 10.699219 -0.21875 10.699219 C -3.152344 10.699219 -5.421875 8.609375 -5.421875 5.972656 C -5.421875 4.46875 -4.652344 2.96875 -3.296875 1.941406 C -1.757812 0.804688 0.21875 0.328125 3.589844 0.328125 L 6.851562 0.328125 L 8.132812 -2.894531 C 7.765625 -2.710938 7.472656 -2.566406 7.289062 -2.453125 C 6.667969 -2.089844 6.484375 -2.050781 5.679688 -2.050781 C 4.542969 -2.050781 3.808594 -2.160156 3.371094 -2.417969 C 2.417969 -2.929688 1.867188 -3.921875 1.867188 -5.054688 C 1.867188 -5.605469 2.015625 -6.191406 2.453125 -7.289062 L 4.726562 -12.859375 L 6.851562 -12.859375 L 4.507812 -7.179688 C 4.066406 -6.15625 4.03125 -5.972656 4.03125 -5.496094 C 4.03125 -4.394531 4.761719 -3.808594 6.226562 -3.808594 C 6.996094 -3.808594 7.621094 -4.140625 9.085938 -5.238281 L 12.199219 -12.859375 Z M 6.007812 2.199219 L 4.175781 2.199219 C 3.699219 2.199219 2.859375 2.234375 2.382812 2.234375 C 0.988281 2.269531 0.402344 2.34375 -0.476562 2.601562 C -2.199219 3.113281 -3.445312 4.507812 -3.445312 5.933594 C -3.445312 7.582031 -2.089844 8.792969 -0.257812 8.792969 C 2.125 8.792969 4.03125 7.144531 5.238281 4.101562 Z M 4.507812 4.359375 C 3.699219 6.703125 1.796875 8.28125 -0.21875 8.28125 C -1.027344 8.28125 -1.648438 8.058594 -2.199219 7.582031 C -1.796875 5.457031 0.328125 4.359375 4.03125 4.359375 C 4.214844 4.359375 4.285156 4.359375 4.507812 4.359375 Z M 4.507812 4.359375 "/></g></g></g></svg>